<svg xmlns="http://www.w3.org/2000/svg" viewBox="0 0 512 512" id="Metaverse"><path d="m314.911 256.1-27.082-7.737a19.96 19.96 0 0 0-24.468 12.906l-8.367 25.1a20.063 20.063 0 0 0-22.868 3.848l-2.955 2.955a4 4 0 0 0-.966 4.093l15.6 46.798-20.215 67.385A11.926 11.926 0 0 1 212.096 420H187.94l-16.125-21.576-4.97-34.783a21.913 21.913 0 0 1 13.591-23.507 30.082 30.082 0 0 0 17.945-35.097l-1.818-7.272 15.994-10.663a11.954 11.954 0 0 0 4.269-14.95l-37.185-81.807a3.981 3.981 0 0 0-.313-.55 44.051 44.051 0 0 0 13.528-45.355l-5.01-17.539a4 4 0 0 0-6.675-1.73l-7.908 7.908a75.95 75.95 0 0 1-36.333 20.24l-53.444 12.575a82.348 82.348 0 0 0-26.794 148.692L100 343.436v22.593l-12.75 9.798a84.021 84.021 0 0 0-32.632 61.019L50.854 493.3l7.982.531 3.764-56.455a76.017 76.017 0 0 1 29.525-55.206l12.326-9.473 60.912 30.456 11.459 15.332-72.037-14.408-1.57 7.844 75.887 15.178-14.058 56.23-76.26-15.252-1.569 7.844 80 16a3.81 3.81 0 0 0 1.393.028v.003l.045-.007.026-.004 81.806-12.585a36.116 36.116 0 0 0 29.827-28.521l19.227-96.133 7.251-3.625a19.873 19.873 0 0 0 10.667-13.968l11.572-57.857A20.11 20.11 0 0 0 314.91 256.1zm-111.76 5.3-53.237 17.746a12.015 12.015 0 0 1-15.179-7.59l-5.88-17.642a12 12 0 0 1 7.589-15.179l48.984-16.328zm-83.876-49.783 54.493-14.862 8.33 18.329-82.836 27.612-.606-4.242a28.198 28.198 0 0 1 20.62-26.837zm-73.967 82.135A74.093 74.093 0 0 1 33.11 273.18l88.178-29.393a19.834 19.834 0 0 0-.023 12.656l4.75 14.25zm113.619 71.02 4.033 28.236-54.96-27.48V296a4 4 0 0 0-2.735-3.795l-11.734-3.912 35.507-10.145a19.98 19.98 0 0 0 23.406 8.587l54.036-18.012 3.063 6.739a3.984 3.984 0 0 1-1.422 4.983l-18.34 12.227a3.999 3.999 0 0 0-1.661 4.298l2.501 10.008c.085.34.138.681.206 1.022H168v8h22.928a22.039 22.039 0 0 1-13.462 16.706 29.894 29.894 0 0 0-18.54 32.065zm162.257-87.087-11.572 57.857a11.922 11.922 0 0 1-6.4 8.38l-9 4.5a4.002 4.002 0 0 0-2.134 2.794l-19.61 98.052a28.092 28.092 0 0 1-23.2 22.182l-75.928 11.682L187.123 428h24.973a19.877 19.877 0 0 0 19.156-14.253l20.58-68.598a4.005 4.005 0 0 0-.037-2.414l-15.218-45.655 1.207-1.207a12.033 12.033 0 0 1 14.646-1.811l-2.891 8.673 7.59 2.53 13.822-41.467a11.974 11.974 0 0 1 14.68-7.743l27.082 7.737a12.067 12.067 0 0 1 8.471 13.893zm125.823 110.714c-31.377-12.14-61.663-6.903-68.948 11.923l-11.547 29.844c-3.625 9.367-.87 20.373 7.758 30.988a68.674 68.674 0 0 0 10.566 10.33l-.028.074.227.088a98.07 98.07 0 0 0 51.707 20.006l.292.114.034-.088c1.7.113 3.388.19 5.044.19a65.112 65.112 0 0 0 9.719-.703c13.525-2.043 22.97-8.327 26.595-17.695l11.548-29.844c7.284-18.827-11.589-43.085-42.967-55.227zm-66.53 67.71c-6.739-8.293-9.049-16.48-6.504-23.056l4.996-12.912a46.194 46.194 0 0 0 6.848 11.17 68.834 68.834 0 0 0 10.765 10.49l-.227-.087-8.479 21.912a58.932 58.932 0 0 1-7.398-7.518zm51.331 26.995a92.32 92.32 0 0 1-37.305-14.435l8.595-22.211a100.85 100.85 0 0 0 37.3 14.444zm39.157-12.521c-2.545 6.575-9.764 11.076-20.33 12.672a58.884 58.884 0 0 1-10.532.58l8.479-21.913-.144-.056c1.809.128 3.598.215 5.34.215 8.446 0 16.033-1.505 22.17-4.375zm-172.898-2.849a27.954 27.954 0 0 1-10.841 17.047l4.749 6.438a35.936 35.936 0 0 0 13.937-21.916l11.61-58.052-7.844-1.568zM312.878 393.683l3.199-16 7.845 1.569-3.2 16z" fill="#ff0697" class="color000000 svgShape"></path><path d="M239.731 188.794c54.036 3.639 104.467 19.86 142.002 45.674a4 4 0 0 0 6.267-3.296V49.208a4 4 0 0 0-2.407-3.669C347.116 28.831 302.303 20 256 20c-5.377 0-10.82.121-16.178.36A4 4 0 0 0 236 24.354v160.448a4 4 0 0 0 3.731 3.991zM276 147.777a27.848 27.848 0 0 1 15.478-25.044l14.31-7.155a4 4 0 0 0 1.79-5.367l-6.311-12.622A12.06 12.06 0 0 1 300 92.223V80a12 12 0 0 1 24 0v12.223a12.06 12.06 0 0 1-1.267 5.366l-6.31 12.622a4 4 0 0 0 1.788 5.367l14.311 7.154A27.85 27.85 0 0 1 348 147.777v16.207a195.107 195.107 0 0 1-70.276-14.003l-1.724-.689zM60 105.492c29.227-37.888 81.436-65.688 144-76.757V104h8V24a4 4 0 0 0-4.641-3.948c-67.214 10.914-123.545 40.683-154.55 81.675A4 4 0 0 0 52 104.14V152h8zm360-32.206c19.134 12.857 34.354 27.649 45.308 44.043C477.71 135.895 484 155.635 484 176v80h8v-80c0-21.976-6.743-43.21-20.04-63.114-12.73-19.056-30.846-35.995-53.842-50.349A4 4 0 0 0 412 65.931V224h8z" fill="#ff0697" class="color000000 svgShape"></path><path d="m84.81 133.727 6.38 4.826c19.21-25.4 49.048-46.633 86.285-61.407l-2.95-7.435c-38.598 15.312-69.621 37.448-89.715 64.016zm357.784 32.704-5.188 6.09a156.586 156.586 0 0 1 23.404 24.56l6.38-4.827a164.653 164.653 0 0 0-24.596-25.823zM48.974 66.837l-5.64-5.674A157.165 157.165 0 0 0 28.81 77.727l6.38 4.826a149.02 149.02 0 0 1 13.783-15.716zm64.62-42.418-3.187-7.338c-21.815 9.473-40.993 21.189-57 34.822l5.187 6.09c15.405-13.12 33.91-24.416 55-33.574zm262.94 340.155a20.899 20.899 0 0 0 20.743-18.482l.639-5.548a27.848 27.848 0 0 1 18.238-23.111l7.936-2.889a27.848 27.848 0 0 1 28.828 5.977l4.056 3.84a20.853 20.853 0 0 0 31.615-26.816l-29.323-43.41a35.947 35.947 0 0 0-42.146-13.676l-43.253 15.745a35.949 35.949 0 0 0-23.491 37.571l5.445 52.102a20.884 20.884 0 0 0 20.713 18.697zm59.975-97.119 2.737 7.518-15.036 5.472-2.736-7.517zm-45.104 16.419 2.736 7.518-15.035 5.473-2.736-7.517z" fill="#ff0697" class="color000000 svgShape"></path></svg>